<?xml version="1.0" standalone="no"?>
<!DOCTYPE svg PUBLIC "-//W3C//DTD SVG 20010904//EN"
 "http://www.w3.org/TR/2001/REC-SVG-20010904/DTD/svg10.dtd">
<svg version="1.0" xmlns="http://www.w3.org/2000/svg"
 width="512.000000pt" height="512.000000pt" viewBox="0 0 512.000000 512.000000"
 preserveAspectRatio="xMidYMid meet">
<metadata>
Created by potrace 1.16, written by Peter Selinger 2001-2019
</metadata>
<g transform="translate(0.000000,512.000000) scale(0.100000,-0.100000)"
fill="#000000" stroke="none">
<path d="M2235 5105 c-462 -60 -885 -237 -1255 -523 -117 -91 -316 -287 -413
-407 -276 -342 -459 -746 -537 -1186 -28 -156 -39 -531 -21 -702 43 -399 182
-790 398 -1122 98 -150 184 -257 318 -394 419 -430 948 -690 1550 -760 134
-16 460 -13 605 4 748 93 1416 512 1833 1150 210 321 344 690 392 1075 20 162
20 477 0 640 -92 742 -510 1412 -1140 1826 -329 216 -695 350 -1085 399 -152
18 -501 18 -645 0z m618 -231 c279 -33 592 -136 839 -274 621 -350 1044 -949
1169 -1655 27 -151 37 -474 20 -626 -34 -300 -131 -614 -264 -859 -55 -102
-176 -285 -239 -362 -145 -179 -352 -365 -543 -491 -682 -447 -1557 -500
-2290 -137 -707 349 -1183 1011 -1291 1795 -19 144 -22 429 -4 565 103 806
586 1486 1305 1835 402 195 833 264 1298 209z"/>
<path d="M1786 3669 c-370 -55 -679 -304 -815 -657 -48 -127 -64 -234 -58
-407 4 -123 9 -165 30 -235 109 -362 372 -619 734 -718 l98 -26 535 -4 536 -3
299 -220 c315 -231 333 -241 375 -199 28 28 25 65 -18 276 l-37 182 52 16 c90
29 224 102 309 169 188 150 317 360 366 597 26 126 21 355 -11 473 -95 357
-375 636 -736 734 l-100 27 -750 2 c-412 1 -777 -2 -809 -7z m169 -848 c140
-63 155 -244 27 -332 -28 -19 -48 -24 -97 -24 -76 0 -133 33 -167 98 -79 154
81 329 237 258z m710 -18 c47 -33 85 -102 85 -153 0 -43 -29 -107 -61 -137
-97 -89 -245 -58 -300 62 -23 49 -24 94 -4 143 48 115 179 154 280 85z m652
13 c131 -61 143 -243 21 -323 -57 -38 -147 -40 -200 -4 -128 88 -113 269 27
332 54 25 90 23 152 -5z"/>
</g>
</svg>
